<?xml version="1.0" encoding="UTF-8"?>
<svg version="1.1" xmlns="http://www.w3.org/2000/svg" width="801" height="801">
<path d="M0 0 C264.33 0 528.66 0 801 0 C801 264.33 801 528.66 801 801 C536.67 801 272.34 801 0 801 C0 536.67 0 272.34 0 0 Z " fill="#FBF6F4" transform="translate(0,0)"/>
<path d="M0 0 C21.23695335 -0.09370834 42.47387229 -0.16410852 63.71099091 -0.20724869 C73.57318561 -0.22781757 83.43525137 -0.25582884 93.29736328 -0.30175781 C101.89962529 -0.34180021 110.50179385 -0.36747398 119.10414648 -0.37635398 C123.65321272 -0.38153945 128.20201177 -0.39360688 132.75099182 -0.42292023 C137.04543891 -0.45036536 141.33951246 -0.45838722 145.63403893 -0.45243073 C147.19796985 -0.45351811 148.76191518 -0.46129697 150.32576942 -0.4768219 C164.84269209 -0.61368958 177.6038614 2.20771943 191 8 C193.65821564 9.02406668 196.32861456 10.01059798 199 11 C199 11.66 199 12.32 199 13 C199.88667862 13.25198151 200.77335724 13.50396301 201.68690491 13.76358032 C212.575301 17.82703966 221.72557886 29.38391762 229.84765625 37.4765625 C231.15313217 38.77304115 232.45867035 40.0694571 233.76426697 41.36581421 C236.48495273 44.07012381 239.2013166 46.77869442 241.9152832 49.48974609 C245.35805756 52.92714254 248.81670224 56.34808009 252.27953434 59.76525307 C254.97793322 62.43361146 257.66471552 65.11344907 260.34863091 67.79636765 C261.61730905 69.06089849 262.89001807 70.32140104 264.16716194 71.57738113 C279.70937384 86.8823018 291.36401235 104.35450838 296 126 C296.30550781 127.23556641 296.30550781 127.23556641 296.6171875 128.49609375 C301.03487967 149.34396979 298.71360273 172.63090594 290 192 C289.35417969 193.47339844 289.35417969 193.47339844 288.6953125 194.9765625 C277.20056943 219.58959993 255.53649338 240.3768729 230 250 C227.66955406 250.81642267 225.33336537 251.59845509 222.98046875 252.34765625 C220.89765201 252.99978138 220.89765201 252.99978138 218.5625 254.0625 C214.49072307 255.55217449 210.25382751 256.20905395 206 257 C204.92649292 257.25450928 204.92649292 257.25450928 203.83129883 257.51416016 C200.28392731 258.12287528 196.78793215 258.20102026 193.19921875 258.23828125 C192.44518265 258.246353 191.69114655 258.25442474 190.91426086 258.26274109 C189.31648014 258.27653981 187.71867046 258.28728071 186.12084961 258.29516602 C184.51821999 258.30658236 182.91562519 258.326866 181.31323242 258.35668945 C153.44582441 258.87398345 128.18853967 248.94539585 107 231 C106.30390625 230.48179687 105.6078125 229.96359375 104.890625 229.4296875 C99.41869809 224.93004513 98.99563327 220.21009793 98.32421875 213.3515625 C98.16373047 211.69253906 98.16373047 211.69253906 98 210 C97.7058334 208.63678891 97.37972804 207.27939608 97 205.9375 C95.50130943 200.39472376 94.60864329 194.70441209 94 189 C93.89526367 188.29093506 93.79052734 187.58187012 93.68261719 186.85131836 C93.36285499 183.29945749 93.33121843 180.96286477 95.40966797 177.97045898 C97.35028417 175.98807371 99.36343685 174.2064203 101.5 172.4375 C102.21542969 171.81037109 102.93085938 171.18324219 103.66796875 170.53710938 C105.42697594 169.00090976 107.20271804 167.49104296 109 166 C111.84578885 167.28995567 113.86422803 168.62771382 116.03344727 170.86987305 C116.59826309 171.4477507 117.16307892 172.02562836 117.74501038 172.62101746 C118.34607101 173.24494888 118.94713165 173.86888031 119.56640625 174.51171875 C120.87014862 175.84078334 122.17419519 177.16954958 123.47851562 178.49804688 C125.51402108 180.58284763 127.54620291 182.67066053 129.57250977 184.7644043 C145.90216259 201.60241989 160.4315013 210.60163766 184.53613281 211.28540039 C191.82243443 211.37459089 198.21010916 210.76707499 205 208 C205.96292969 207.64808594 206.92585937 207.29617188 207.91796875 206.93359375 C215.0361807 204.19998384 220.98327571 200.6611365 227 196 C227.82371094 195.40058594 228.64742187 194.80117188 229.49609375 194.18359375 C232.40724191 191.64485456 234.49583016 188.81141279 236.625 185.625 C237.0065625 185.07328125 237.388125 184.5215625 237.78125 183.953125 C246.96107917 170.4682725 250.0002514 155.97541371 247.3125 139.875 C243.2643986 123.04048175 234.10137419 111.61585254 222 99.671875 C220.95383895 98.6287837 219.90827832 97.58508992 218.86328125 96.54083252 C216.68944096 94.37155302 214.51084494 92.20721904 212.328125 90.046875 C209.55111612 87.29821544 206.7829182 84.54089273 204.01782227 81.78025436 C201.34835201 79.11597235 198.6742468 76.45636097 196 73.796875 C195.50193848 73.3006942 195.00387695 72.8045134 194.49072266 72.29329681 C178.51333344 56.39387559 166.35258092 45.63358736 142.890625 45.48828125 C141.25139069 45.46135445 141.25139069 45.46135445 139.57904053 45.43388367 C136.13606468 45.38030207 132.69322318 45.34605356 129.25 45.3125 C126.89581483 45.27928084 124.54164729 45.24478703 122.1875 45.20898438 C116.45845407 45.12460647 110.72938955 45.05603938 105 45 C105 45.66 105 46.32 105 47 C105.58555664 47.25885986 106.17111328 47.51771973 106.77441406 47.78442383 C109.1688396 49.09221724 110.71093329 50.49736101 112.609375 52.44921875 C113.28226562 53.13306641 113.95515625 53.81691406 114.6484375 54.52148438 C115.68871094 55.59366211 115.68871094 55.59366211 116.75 56.6875 C121.42765534 61.48520923 126.14562686 66.11880987 131.24707031 70.46801758 C132.91589594 71.9264968 134.52558883 73.343979 136 75 C136 75.66 136 76.32 136 77 C127.50241811 79.36793679 118.96585923 80.84205556 110.1875 81.6875 C109.52718906 81.75140678 108.86687813 81.81531357 108.18655777 81.88115692 C89.98580608 83.42587106 76.19925903 79.24653337 62.13306713 67.48281574 C52.10856664 58.74662877 42.81122784 49.28660929 33.6875 39.625 C32.84288082 38.73223232 31.99826164 37.83946465 31.12804794 36.9196434 C22.54445692 27.81119677 14.1186987 18.56587455 5.91674805 9.11181641 C5.31114642 8.41772517 4.7055448 7.72363394 4.08159161 7.00850964 C0 2.24217952 0 2.24217952 0 0 Z " fill="#FD5C4A" transform="translate(322,354)"/>
<path d="M0 0 C0 0.66 0 1.32 0 2 C1.36125 2.0928125 1.36125 2.0928125 2.75 2.1875 C32.12606601 6.49363016 55.0424437 33.88045171 74.79420376 53.62694669 C76.30866969 55.14069535 77.82384807 56.65372723 79.33927155 58.16651726 C84.63265709 63.45071345 89.92351774 68.73742206 95.21191406 74.02661133 C100.13587366 78.95117593 105.06543391 83.87008586 109.99753833 88.78649193 C114.24758666 93.02349511 118.49380184 97.26431365 122.73701215 101.50816482 C125.26528006 104.03668782 127.79508103 106.56362919 130.32875824 109.08673286 C133.13978273 111.88633824 135.94282664 114.69384818 138.74511719 117.50219727 C139.58653259 118.33799316 140.427948 119.17378906 141.29486084 120.03491211 C142.43000122 121.17634422 142.43000122 121.17634422 143.58807373 122.34083557 C144.25092754 123.00314462 144.91378136 123.66545366 145.59672165 124.34783268 C147 126 147 126 147 128 C138.08998073 128.11593167 129.18022169 128.20473378 120.26961231 128.25906086 C116.13186282 128.28513747 111.99462992 128.32049885 107.85717773 128.37719727 C103.86304854 128.4315881 99.86941569 128.46143511 95.87494469 128.47438622 C94.3522733 128.48361359 92.82962861 128.50163316 91.30716896 128.52865028 C89.17138957 128.56503836 87.03765161 128.56994183 84.90161133 128.56762695 C83.6869368 128.57873001 82.47226227 128.58983307 81.22077942 128.60127258 C76.99522094 127.81242239 75.77820777 126.23248485 73 123 C72.02878787 122.00008207 71.04940341 121.00805602 70.06324768 120.02287292 C68.96857527 118.91012584 67.87401257 117.79727082 66.77954102 116.68432617 C60.626682 110.43303951 54.45825128 104.19735246 48.28102207 97.97014904 C44.55431254 94.21220152 40.83339094 90.44887995 37.12524414 86.67260742 C33.52132586 83.00293816 29.9024451 79.34862792 26.27323723 75.70397377 C24.90340369 74.3231688 23.53880338 72.93714907 22.17993355 71.54555321 C13.7682198 62.93942083 5.83642772 56.35041047 -5 51 C-6.22903297 50.35486702 -6.22903297 50.35486702 -7.4828949 49.69670105 C-17.6264824 44.45936736 -29.76600322 43.33632007 -41 44 C-41.81210937 44.04253906 -42.62421875 44.08507812 -43.4609375 44.12890625 C-48.73425621 44.55185161 -53.15935226 45.92142399 -58 48 C-59.04607422 48.39832031 -59.04607422 48.39832031 -60.11328125 48.8046875 C-74.48357705 54.57322542 -86.29384365 66.09173362 -93 80 C-94.2250529 83.29082838 -95.20148309 86.58188804 -96 90 C-96.18433594 90.75667969 -96.36867187 91.51335937 -96.55859375 92.29296875 C-99.2104197 108.55593675 -96.03031565 124.24030371 -87 138 C-81.33136592 145.77056359 -74.74710011 152.47118439 -67.5078125 158.78125 C-64.89401438 161.09376921 -62.46051703 163.52488888 -60 166 C-58.03662428 167.95394941 -56.0726991 169.90733449 -54.1081543 171.86010742 C-48.36866636 177.56704348 -42.63416983 183.27896729 -36.90256023 188.99381542 C-33.43953096 192.44635669 -29.97463419 195.89698208 -26.50561523 199.34350586 C-23.1433466 202.68411787 -19.78592188 206.02952692 -16.43186378 209.37838173 C-15.15251717 210.65402518 -13.87140792 211.92790333 -12.58853722 213.20000267 C-10.80267392 214.97144301 -9.02307141 216.74894657 -7.24487305 218.52807617 C-6.71038544 219.05537323 -6.17589783 219.58267029 -5.62521362 220.12594604 C-2 223.77188971 -2 223.77188971 -2 226 C-59.56504142 234.87509432 -59.56504142 234.87509432 -79.21044922 221.12207031 C-87.1418572 215.1958868 -94.03748767 208.17830157 -100.6875 200.875 C-101.22989822 200.28167374 -101.77229645 199.68834747 -102.33113098 199.07704163 C-115.09344778 185.02285702 -129.14602306 169.32808922 -137.3125 152.0625 C-137.6317041 151.40266113 -137.9509082 150.74282227 -138.27978516 150.06298828 C-150.8431876 123.39353216 -151.14670365 94.42318095 -141.515625 66.77734375 C-136.02012564 52.50617232 -127.33871418 41.1038858 -117 30 C-116.38511719 29.319375 -115.77023438 28.63875 -115.13671875 27.9375 C-85.05605225 -4.0111308 -40.59377302 -7.90432867 0 0 Z " fill="#25292A" transform="translate(332,204)"/>
<path d="M0 0 C72.27 0 144.54 0 219 0 C217.89218787 3.3234364 217.06744845 4.0337082 214.44140625 6.21484375 C210.13958936 9.86588522 206.03096952 13.68075336 201.9375 17.5625 C200.44293939 18.974203 198.94814312 20.38565653 197.453125 21.796875 C196.70869141 22.50005859 195.96425781 23.20324219 195.19726562 23.92773438 C186.51741571 32.11379727 177.77554524 40.23202854 168.96875 48.28125 C166.87958319 50.19166457 164.79707361 52.10904459 162.71875 54.03125 C162.16598389 54.54131592 161.61321777 55.05138184 161.04370117 55.5769043 C159.93954029 56.60126189 158.84063288 57.63131425 157.74731445 58.66723633 C155.20577815 61.05933881 152.73424575 63.19039608 149.88671875 65.23046875 C147.00178555 67.35725906 145.03580527 69.04980298 143 72 C142.83298266 75.25774009 142.83298266 75.25774009 143.55859375 78.77734375 C143.66530396 79.43027405 143.77201416 80.08320435 143.88195801 80.75592041 C144.23020587 82.84236583 144.61261813 84.92049684 145 87 C145.2379348 88.347258 145.47500417 89.69466915 145.71118164 91.04223633 C146.43773774 95.11863418 147.21590939 99.18434496 148 103.25 C148.26340923 104.63013426 148.52643085 106.01034256 148.7890625 107.390625 C149.29406158 110.04328428 149.7994431 112.69586896 150.30517578 115.34838867 C150.53446777 116.55342041 150.76375977 117.75845215 151 119 C151.20737793 120.08966064 151.41475586 121.17932129 151.62841797 122.30200195 C151.90129639 123.76319458 151.90129639 123.76319458 152.1796875 125.25390625 C152.33679199 126.08994385 152.49389648 126.92598145 152.65576172 127.78735352 C153.08471754 130.54453548 153.15048887 133.21595597 153 136 C142.43369524 134.04613343 131.39933592 125.58190587 122.125 120.375 C120.68193481 119.56820801 120.68193481 119.56820801 119.2097168 118.74511719 C113.29511359 115.40445694 107.59157819 111.85751402 102 108 C99.02183282 109.42432416 97.02068318 110.77903265 94.75 113.1875 C92.31966206 115.69523724 89.84494342 118.04696237 87.1875 120.3125 C83.97666245 123.07618029 80.97732835 125.98619596 78 129 C74.41822726 132.62565357 70.74661711 136.0374685 66.87109375 139.34375 C64.38784367 141.54186698 62.10686721 143.90919452 59.8359375 146.32421875 C57.41743913 148.53174173 54.74990244 150.23220557 52 152 C50.64736321 148.23271331 49.29654825 144.46477841 47.94726562 140.69628906 C47.26784185 138.79980224 46.58706412 136.90380065 45.90625 135.0078125 C42.90351013 126.61780404 40.03297948 118.1934028 37.25390625 109.72705078 C35.02838488 102.98747121 32.64161059 96.3071745 30.25 89.625 C29.800123 88.36507419 29.3502533 87.10514577 28.90039062 85.84521484 C26.74197556 79.80847054 24.5593612 73.78246468 22.30786133 67.77978516 C18.54053117 57.73129437 15.14630094 47.565542 11.78369141 37.3762207 C8.74711576 28.18290427 5.60579313 19.03040987 2.33618164 9.91699219 C2.02672607 9.04333008 1.71727051 8.16966797 1.3984375 7.26953125 C1.12692871 6.51260986 0.85541992 5.75568848 0.57568359 4.97583008 C0 3 0 3 0 0 Z " fill="#25292A" transform="translate(253,453)"/>
</svg>
